<svg xmlns="http://www.w3.org/2000/svg" version="1.1" xmlns:xlink="http://www.w3.org/1999/xlink" xmlns:svgjs="http://svgjs.dev/svgjs" width="100%" height="100%" viewBox="0 0 1000 600"><rect width="1000" height="600" x="0" y="0" fill="#358597"/><g><rect width="333.3333333333333" height="333.3333333333333" rx="13.333333333333334" ry="13.333333333333334" y="233.36354305193896" fill="#f4a896" transform="matrix(0.592020458428451,0,0,0.592020458428451,0,63.17391258074497)" x="211.14120483398438"/><path d="M261.24213479614605 416.60082753498114L261.24213479614605 416.60082753498114L249.19876752524846 416.60082753498114L249.19876752524846 417.86083919592664L251.74809344390565 472.7153003422047L223.47108756454753 472.7153003422047L225.99111088643852 421.4357560013999L223.47108756454753 327.13999960785134L269.2417437133116 327.13999960785134Q289.51914067550416 327.13999960785134 301.5332053496356 338.0991707984005Q313.547270023767 349.08764458571585 313.547270023767 367.22595198397767L313.547270023767 367.22595198397767Q313.547270023767 380.9395672705472 306.48534420311904 392.22106702552423Q299.423418382471 403.5025667805013 287.4093537083396 410.06634845612433L287.4093537083396 410.06634845612433L324.0962048595897 461.9612473290188L298.573643076252 475.0302054867325L265.66682690783836 416.39570935761793Q264.20169706952964 416.60082753498114 261.24213479614605 416.60082753498114ZM261.6523711508725 348.44298745685995L261.6523711508725 348.44298745685995L251.308554492413 348.44298745685995L249.8434246541043 396.1183123954254L264.20169706952964 396.1183123954254Q274.75063190535235 396.1183123954254 280.55254606505486 389.1735969618421Q286.35446022475736 382.1995789314926 286.35446022475736 369.33573895114216L286.35446022475736 369.33573895114216Q286.35446022475736 348.44298745685995 261.6523711508725 348.44298745685995ZM366.0868260255173 348.44298745685995L328.7553177454114 351.4025497302436L331.07022288993915 327.13999960785134L431.2851038302549 327.13999960785134L428.97019868572715 351.4025497302436L392.2540449377109 348.2378692794968L391.40426963149184 417.86083919592664L393.953595550149 472.7153003422047L364.4165780098454 472.7153003422047L366.93660133173637 421.4357560013999L366.0868260255173 348.44298745685995ZM434.0395479262753 453.52209946036066L450.478304712099 430.7246791762771Q468.4114939329976 448.6578683971757 486.3446831538962 448.6578683971757L486.3446831538962 448.6578683971757Q495.63360632877345 448.6578683971757 501.2304023111127 444.3503866725481Q506.82719829345194 440.01360235115436 506.82719829345194 433.1567947078696Q506.82719829345194 426.2999870645848 500.0582984404657 421.5529663884646Q493.3187011842456 416.8059457123444 483.7074494449405 413.23102890687113Q474.1255003024015 409.6268095046317 464.6314589501611 405.0849070058747Q455.1374175979207 400.5723071038839 448.3685177449345 392.1331592352257Q441.62892048871436 383.69401136656757 441.62892048871436 371.6506440956699L441.62892048871436 371.6506440956699Q441.62892048871436 352.66256139118906 457.4523227424485 338.86103831432104Q473.2757249961825 325.0302126406868 494.98894919991756 325.0302126406868L494.98894919991756 325.0302126406868Q504.9225295036506 325.0302126406868 514.2114526785278 327.13999960785134Q523.4710732566389 329.2497865750159 532.1446418994265 333.26424233198173L532.1446418994265 333.26424233198173L517.786369484001 364.0612715332308Q511.867244937234 359.4314612441753 501.6406386658391 355.50491327750797Q491.41403239444435 351.6076679076068 483.7074494449405 351.6076679076068Q476.00086649543664 351.6076679076068 471.25384581931644 355.29979510014476Q466.5068251431963 358.99192229268266 466.5068251431963 365.1161650168131Q466.5068251431963 371.2404077409435 473.2757249961825 375.9874284170637Q480.0153222524026 380.73444909318397 489.6265739917077 384.3093658986572Q499.20852313424666 387.9135853008966 508.81977487355175 392.22106702552423Q518.431026612857 396.557851346918 525.170623869077 404.9969992155762Q531.9102211252971 413.43614708423434 531.9102211252971 425.45021175836575L531.9102211252971 425.45021175836575Q531.9102211252971 445.2880697690657 516.086818871563 460.1737889262822Q500.26341661782897 475.0302054867325 479.16554694618344 475.0302054867325L479.16554694618344 475.0302054867325Q463.34214469244944 475.0302054867325 451.1229618409549 467.44083292429343L451.1229618409549 467.44083292429343Q440.3689088277689 460.90635384543657 435.9149141193104 455.8370046048884L435.9149141193104 455.8370046048884L434.0395479262753 453.52209946036066Z " fill="#358597" transform="matrix(0.592020458428451,0,0,0.592020458428451,0,63.17391258074497)"/><path d="M654.8233734188872 401.6964122738387L654.8233734188872 401.6964122738387L646.2094289920497 401.6964122738387L646.2094289920497 402.5976278708071L648.0328186882415 441.8319440923156L627.8078640120899 441.8319440923156L629.6102952060268 405.15456514592677L627.8078640120899 337.7101048890815L660.5450445345239 337.7101048890815Q675.0483280950388 337.7101048890815 683.6413140196212 345.5485847324812Q692.2342999442037 353.40802307813595 692.2342999442037 366.38133597403004L692.2342999442037 366.38133597403004Q692.2342999442037 376.1899150294072 687.1833009007296 384.2589383976127Q682.1323018572555 392.32796176581826 673.5393159326729 397.02266627095605L673.5393159326729 397.02266627095605L699.7793607560324 434.1401737647015L681.5245052918583 443.4876657704669L657.9881072594042 401.5497027580532Q656.9401821466502 401.6964122738387 654.8233734188872 401.6964122738387ZM655.1167924504582 352.9469360285242L655.1167924504582 352.9469360285242L647.7184411544154 352.9469360285242L646.6705160416614 387.0464191975383L656.9401821466502 387.0464191975383Q664.4852429584787 387.0464191975383 668.6350264049845 382.07925416308444Q672.7848098514901 377.09113062637556 672.7848098514901 367.89034813639574L672.7848098514901 367.89034813639574Q672.7848098514901 352.9469360285242 655.1167924504582 352.9469360285242ZM739.0136769775409 426.4484034370874L739.0136769775409 426.4484034370874Q743.3940039488524 426.4484034370874 748.2354179697758 424.18488519353883Q753.0558734884439 421.9213669499903 755.7804787816043 419.6578487064417L755.7804787816043 419.6578487064417L758.4841255725095 417.39433046289315L765.4213898189407 425.8406068716901Q763.912377656575 428.39754414680976 760.747643816058 431.72994600536737Q757.5829099755412 435.0413893616699 754.3343421260038 437.3887416142388Q751.0857742764665 439.7151353645526 745.7413562014212 441.60140056750976Q740.375979624121 443.4876657704669 734.6543085084843 443.4876657704669L734.6543085084843 443.4876657704669Q722.414543191518 443.4876657704669 714.7227728639039 434.20304927146674Q707.0310025362897 424.9393912747217 707.0310025362897 410.2893981984212L707.0310025362897 410.2893981984212Q707.0310025362897 391.8878332184616 717.7407971886353 377.992346223344Q728.4505918409809 364.1178177304815 742.7862073834551 364.1178177304815L742.7862073834551 364.1178177304815Q753.8103795696268 364.1178177304815 759.93026222811 370.3005758957299Q766.0291863843381 376.4833340609783 766.0291863843381 387.65421576293556L766.0291863843381 387.65421576293556Q766.0291863843381 394.2980609777957 763.7656681407896 402.7443373865927L763.7656681407896 402.7443373865927L760.747643816058 405.9090712271096L723.0223397569152 409.3881826014528Q725.60023553429 426.4484034370874 739.0136769775409 426.4484034370874ZM739.0136769775409 379.6690264037503L739.0136769775409 379.6690264037503Q732.3907902649357 379.6690264037503 727.8637537778386 385.0134444787956Q723.3367172907415 390.3788210560959 722.5822112095586 398.6783879491073L722.5822112095586 398.6783879491073L748.2354179697758 395.51365410859034Q748.6755465171324 392.0345427342471 748.6755465171324 389.77102449069855L748.6755465171324 389.77102449069855Q748.6755465171324 379.6690264037503 739.0136769775409 379.6690264037503ZM822.9315200068784 403.64555298356106Q822.9315200068784 393.2501358650417 821.1081303106865 389.77102449069855Q819.3056991167497 386.29191311635543 812.6618539018896 386.29191311635543Q806.0180086870295 386.29191311635543 797.5717322782325 391.5734556846354L797.5717322782325 391.5734556846354L797.5717322782325 402.5976278708071L799.2274539563837 438.05941368640134L779.0024992802322 441.8319440923156L780.825888976424 405.15456514592677Q780.2180924110268 384.95056897203034 777.4934871178665 368.93827324914974L777.4934871178665 368.93827324914974L795.7693010842956 365.0190333274499Q796.8172261970496 373.77968727007305 797.2783132466614 382.07925416308444L797.2783132466614 382.07925416308444Q799.5418314902099 379.06122983835303 802.3921877969008 376.10608102038685Q805.2635026058466 373.1718907046758 811.446260771095 369.4831943077818Q817.6499774385984 365.77353940863276 824.5034076760094 365.77353940863276Q831.3777964156754 365.77353940863276 836.0515424185581 371.13891598593307Q840.7252884214407 376.4833340609783 840.7252884214407 385.7050750532132L840.7252884214407 385.7050750532132L839.8240728244724 402.5976278708071L841.4797945026236 438.8139197675842L821.1081303106865 442.58645017349846L822.9315200068784 403.64555298356106ZM855.2076134797006 368.79156373336417L863.9682674223237 368.79156373336417L863.9682674223237 352.33913946312686L884.3399316142609 348.41989954142707L882.3698324022834 368.79156373336417L900.6456463687125 368.79156373336417L898.9689661883062 381.1780385661161L881.7829943391412 381.1780385661161L881.0284882579583 412.69962595775536Q881.0284882579583 419.80455822222723 882.3698324022834 422.1309519725411Q883.7321350488635 424.4783042251099 887.3579559389923 424.4783042251099Q890.9837768291211 424.4783042251099 897.0198254785839 422.82258254695864L897.0198254785839 422.82258254695864L897.9210410755522 433.5323771993042Q887.9657525043895 441.8319440923156 880.420691692561 441.8319440923156Q872.8756308807325 441.8319440923156 868.0342168598091 436.3198579992297Q863.2137613411409 430.8077719061439 863.2137613411409 421.9213669499903L863.2137613411409 421.9213669499903L864.1149769381093 405.00785563014125L863.9682674223237 381.1780385661161L853.5518918015493 381.1780385661161L855.2076134797006 368.79156373336417ZM952.8532754861151 352.9469360285242L926.131185110889 355.06374475628724L927.8078652912955 337.7101048890815L999.4859430036666 337.7101048890815L997.8092628232603 355.06374475628724L971.569217999901 352.8002265127387L970.9614214345037 402.5976278708071L972.7638526284405 441.8319440923156L951.6376823553205 441.8319440923156L953.4610720515125 405.15456514592677L952.8532754861151 352.9469360285242ZM1052.3013686864665 403.64555298356106Q1052.3013686864665 393.2501358650417 1050.4779789902748 389.77102449069855Q1048.675547796338 386.29191311635543 1042.0317025814777 386.29191311635543Q1035.3878573666175 386.29191311635543 1026.9415809578204 391.5734556846354L1026.9415809578204 391.5734556846354L1026.9415809578204 402.5976278708071L1028.5973026359718 438.05941368640134L1008.2256384440348 441.8319440923156L1010.0490281402266 405.15456514592677L1008.2256384440348 328.8027414306728L1028.911680169798 325.03021102475856L1026.9415809578204 364.1178177304815L1026.9415809578204 381.76487662925825Q1029.2050992013692 378.74685230452684 1032.076414010315 375.89649599783604Q1034.9477288192609 373.0251811888902 1040.9837774687237 369.39936029876145Q1047.0198261181865 365.77353940863276 1053.8732563555975 365.77353940863276Q1060.7476450952636 365.77353940863276 1065.4213910981462 371.13891598593307Q1070.095137101029 376.4833340609783 1070.095137101029 385.7050750532132L1070.095137101029 385.7050750532132L1069.1939215040607 402.5976278708071L1070.8496431822118 438.8139197675842L1050.4779789902748 442.58645017349846L1052.3013686864665 403.64555298356106ZM1109.0360342909662 475.0302116643613L1089.5655856959977 470.9642622268759L1105.1167943692665 436.0893144744239L1093.9459126673091 405.61565219553853L1078.7090815278666 368.93827324914974L1098.7663681859774 365.1657428432354L1108.428237725569 397.31608530252714L1113.4163612622779 412.5529164419698L1115.3655019720002 412.5529164419698L1118.991322862129 401.5497027580532L1129.84782703026 365.0190333274499L1148.4170600282603 367.28255157099846L1121.7159281552892 437.451617121004L1109.0360342909662 475.0302116643613ZM1174.0702667884775 428.1041251152387L1185.848945055832 411.79841036078693Q1198.6755484359405 424.6250137408955 1211.502151816049 424.6250137408955L1211.502151816049 424.6250137408955Q1218.1250385286542 424.6250137408955 1222.1281124593743 421.54411390939885Q1226.1311863900946 418.4422555756471 1226.1311863900946 413.53796604795855Q1226.1311863900946 408.63367652026994 1221.3107308714261 405.2383991549471Q1216.4693168505028 401.84312178962426 1209.615886613092 399.2861845145046Q1202.741497873426 396.7082887371298 1195.95094314278 393.45972088759254Q1189.1603884121346 390.2321115403103 1184.3399328934663 384.1960628908475Q1179.4985188725432 378.1600142413846 1179.4985188725432 369.546069814547L1179.4985188725432 369.546069814547Q1179.4985188725432 355.96496035325566 1190.8161100902857 346.0935057911133Q1202.1337013080288 336.2010927267158 1217.6849099812976 336.2010927267158L1217.6849099812976 336.2010927267158Q1224.7688837435144 336.2010927267158 1231.4127289583744 337.7101048890815Q1238.0565741732346 339.21911705144726 1244.239332338483 342.0904318603931L1244.239332338483 342.0904318603931L1233.969666233494 364.1178177304815Q1229.7570072802232 360.806374374179 1222.4424899932005 357.9979350719983Q1215.1070142039227 355.2104542720728 1209.615886613092 355.2104542720728Q1204.1038005200062 355.2104542720728 1200.7085231546835 357.85122555621274Q1197.3132457893603 360.4919968403527 1197.3132457893603 364.87232381166433Q1197.3132457893603 369.25265078297593 1202.1337013080288 372.6479281482988Q1206.9751153289521 376.0432055136216 1213.828545566363 378.60014278874127Q1220.702934306029 381.1780385661161 1227.55636454344 384.2589383976127Q1234.4307532831058 387.3607967313645 1239.2512088017743 393.3968453808273Q1244.0926228226976 399.43289403029013 1244.0926228226976 408.02587995487266L1244.0926228226976 408.02587995487266Q1244.0926228226976 422.21478598156136 1232.7750316049546 432.86170512714165Q1221.4574403872116 443.4876657704669 1206.3673187635545 443.4876657704669L1206.3673187635545 443.4876657704669Q1195.049727545812 443.4876657704669 1186.2890736031886 438.05941368640134L1186.2890736031886 438.05941368640134Q1178.5973032755746 433.38566768351865 1175.4325694350575 429.7598467933899L1175.4325694350575 429.7598467933899L1174.0702667884775 428.1041251152387ZM1253.9012018780745 368.79156373336417L1262.6408973184427 368.79156373336417L1262.6408973184427 352.33913946312686L1283.0125615103798 348.41989954142707L1281.0634208006575 368.79156373336417L1299.3182762648316 368.79156373336417L1297.6625545866802 381.1780385661161L1280.45562423526 381.1780385661161L1279.7011181540774 412.69962595775536Q1279.7011181540774 419.80455822222723 1281.0634208006575 422.1309519725411Q1282.4257234472375 424.4783042251099 1286.0305858351112 424.4783042251099Q1289.65640672524 424.4783042251099 1295.6924553747028 422.82258254695864L1295.6924553747028 422.82258254695864L1296.5936709716711 433.5323771993042Q1286.6383824005086 441.8319440923156 1279.0933215886798 441.8319440923156Q1271.5482607768513 441.8319440923156 1266.7278052581833 436.3198579992297Q1261.8863912372599 430.8077719061439 1261.8863912372599 421.9213669499903L1261.8863912372599 421.9213669499903L1262.8085653364833 405.00785563014125L1262.6408973184427 381.1780385661161L1252.2454801999233 381.1780385661161L1253.9012018780745 368.79156373336417ZM1328.4505943993918 441.8319440923156L1328.4505943993918 441.8319440923156Q1320.297737022166 441.8319440923156 1315.2467379786917 436.4665675150153Q1310.1747804329625 431.1221494399701 1310.1747804329625 422.36149549734694L1310.1747804329625 422.36149549734694L1311.096954532186 405.00785563014125L1309.4202743517799 368.79156373336417L1329.6452290279312 365.0190333274499L1327.696088318209 410.89719476381856Q1327.696088318209 417.39433046289315 1330.0224820685225 420.41235478762457Q1332.3698343210917 423.430379112356 1337.504667373586 423.430379112356Q1342.6185419238254 423.430379112356 1351.6726148980197 418.2955460598615L1351.6726148980197 418.2955460598615L1351.6726148980197 409.2414730856673L1350.0168932198685 369.546069814547L1370.3885574118053 365.77353940863276L1368.5861262178687 403.49884346777554L1368.7328357336542 415.8853183005274Q1368.7328357336542 425.5262293378639 1373.720959270363 435.334808393241L1373.720959270363 435.334808393241L1358.0230410813087 442.2930311419274Q1353.0349175446 432.4844520865502 1351.986992431846 426.59511295287297L1351.986992431846 426.59511295287297Q1338.4058829705546 441.8319440923156 1328.4505943993918 441.8319440923156ZM1432.2580560687998 326.3925136713387L1427.5843100659172 343.59944402275886Q1422.0093484660658 342.23714137617867 1417.4823119789687 342.23714137617867Q1412.9552754918716 342.23714137617867 1410.9013422708736 344.961746669339Q1408.868367552131 347.6653934602442 1408.868367552131 354.45594819088996L1408.868367552131 354.45594819088996L1408.7216580363456 368.79156373336417L1425.0273727907972 368.79156373336417L1423.350692610391 381.1780385661161L1408.7216580363456 381.1780385661161L1408.57494852056 402.5976278708071L1410.2306701987113 438.05941368640134L1389.859006006774 441.8319440923156L1391.6614372007111 405.15456514592677L1391.0745991375688 381.1780385661161L1381.098352064151 381.1780385661161L1382.7750322445572 368.79156373336417L1390.7602216037426 368.79156373336417L1390.6135120879571 357.3272629998358Q1390.6135120879571 343.89286305432995 1398.9130789809683 334.4615370395442Q1407.21264587398 325.03021102475856 1419.13803365712 325.03021102475856L1419.13803365712 325.03021102475856Q1425.467501338154 325.03021102475856 1432.2580560687998 326.3925136713387L1432.2580560687998 326.3925136713387ZM1477.9895079893827 326.3925136713387L1473.3157619865 343.59944402275886Q1467.7198418843939 342.23714137617867 1463.1928053972968 342.23714137617867Q1458.6657689101996 342.23714137617867 1456.632794191457 344.961746669339Q1454.5998194727142 347.6653934602442 1454.5998194727142 354.45594819088996L1454.5998194727142 354.45594819088996L1454.4531099569285 368.79156373336417L1470.7378662091253 368.79156373336417L1469.0821445309741 381.1780385661161L1454.4531099569285 381.1780385661161L1454.2854419388882 402.5976278708071L1455.9621221192942 438.05941368640134L1435.5904579273574 441.8319440923156L1437.392889121294 405.15456514592677L1436.7850925558969 381.1780385661161L1426.829803984734 381.1780385661161L1428.4855256628855 368.79156373336417L1436.4916735243257 368.79156373336417L1436.34496400854 357.3272629998358Q1436.34496400854 343.89286305432995 1444.6445309015517 334.4615370395442Q1452.9440977945628 325.03021102475856 1464.848527075448 325.03021102475856L1464.848527075448 325.03021102475856Q1471.1989532587372 325.03021102475856 1477.9895079893827 326.3925136713387L1477.9895079893827 326.3925136713387Z " fill="#f4a896" transform="matrix(0.592020458428451,0,0,0.592020458428451,0,63.17391258074497)"/></g></svg>